<?xml version="1.0" standalone="no"?>
<!DOCTYPE svg PUBLIC "-//W3C//DTD SVG 20010904//EN"
 "http://www.w3.org/TR/2001/REC-SVG-20010904/DTD/svg10.dtd">
<svg version="1.0" xmlns="http://www.w3.org/2000/svg"
 width="500.000000pt" height="500.000000pt" viewBox="0 0 500.000000 500.000000"
 preserveAspectRatio="xMidYMid meet">
<metadata>
Created by potrace 1.11, written by Peter Selinger 2001-2013
</metadata>
<g transform="translate(0.000000,500.000000) scale(0.100000,-0.100000)"
fill="#000000" stroke="none">
<path d="M2236 4329 c-586 -86 -1107 -470 -1371 -1012 -320 -655 -234 -1421
221 -1984 244 -300 594 -526 966 -622 167 -43 288 -54 532 -48 178 4 227 9
317 30 234 56 431 140 613 261 419 281 687 675 799 1176 19 84 21 127 22 370
0 268 -1 278 -28 394 -93 388 -262 688 -535 947 -270 256 -622 431 -977 484
-110 16 -457 19 -559 4z m604 -423 c119 -30 184 -53 279 -98 605 -289 932
-953 796 -1611 -104 -496 -486 -920 -968 -1073 -142 -44 -207 -55 -382 -61
-134 -4 -193 -2 -280 12 -301 47 -569 186 -790 410 -279 282 -418 621 -418
1015 0 239 42 421 147 635 78 159 158 270 285 395 217 213 454 335 766 396 49
9 128 12 265 10 170 -4 209 -7 300 -30z"/>
<path d="M2144 3711 c-2 -2 -4 -85 -4 -183 l0 -178 -225 0 -225 0 0 -119 0
-119 113 -3 c87 -3 119 -8 140 -22 l27 -17 0 -555 0 -554 -24 -28 c-23 -26
-28 -28 -130 -31 l-106 -4 0 -119 0 -119 215 0 215 0 0 -185 0 -185 120 0 120
0 0 185 0 185 70 0 70 0 0 -63 c0 -35 3 -119 7 -185 l6 -122 109 0 108 0 0
183 0 183 133 11 c230 20 346 71 439 192 70 91 93 172 93 331 0 115 -2 130
-27 182 -41 88 -116 150 -256 214 -2 1 22 25 52 54 33 31 68 78 86 113 28 56
30 68 30 166 0 134 -20 181 -108 262 -75 70 -174 113 -327 144 l-110 21 -3
182 -2 182 -109 0 -108 0 -6 -122 c-4 -66 -7 -147 -7 -180 l0 -58 -70 0 -70 0
-2 181 -3 180 -113 2 c-63 1 -116 0 -118 -2z m537 -635 c122 -28 189 -95 189
-188 0 -97 -44 -173 -123 -213 -48 -24 -60 -25 -209 -25 l-158 0 0 220 0 220
123 0 c67 0 147 -6 178 -14z m147 -692 c67 -24 120 -67 138 -110 34 -81 2
-209 -68 -268 -69 -60 -110 -69 -325 -74 l-192 -4 -3 229 c-2 125 -1 234 1
242 7 22 380 10 449 -15z"/>
</g>
</svg>
